# xmcd
#
# Track frame offsets: 
#        150
#        19492
#        34728
#        48303
#        66653
#        80939
#        101833
#        117969
#        134452
#        148545
#        167282
#        182592
#        199009
#        217237
#        233664
#        244958
#
# Disc length: 3536 seconds
#
# Revision: 0
# Processed by: cddbd v1.5.1PL0 Copyright (c) Steve Scherf et al.
# Submitted via: ExactAudioCopy v0.95b1
#
DISCID=f20dce10
DTITLE=Krzysztof Krawczyk - Jestem soba - Polskie tango [CD4) 
DYEAR=2005
DGENRE=Pop
TTITLE0=Polskie tango
TTITLE1=W kalendarzu jest taki dzien
TTITLE2=Powrocmy jak za dawnych lat
TTITLE3=Przy kominku
TTITLE4=Nie kochac w taka noc to grzech
TTITLE5=Pierwszy siwy wlos
TTITLE6=Tango milonga
TTITLE7=Juz nigdy
TTITLE8=Jesienne roze
TTITLE9=Piosenka przypomni Ci
TTITLE10=Pamietam Twoje oczy
TTITLE11=Ta ostatnia niedziela
TTITLE12=Takie tango
TTITLE13=Piesn o matce
TTITLE14=Serce matki
TTITLE15=Widze kraj jakis
EXTD=
EXTT0=
EXTT1=
EXTT2=
EXTT3=
EXTT4=
EXTT5=
EXTT6=
EXTT7=
EXTT8=
EXTT9=
EXTT10=
EXTT11=
EXTT12=
EXTT13=
EXTT14=
EXTT15=
PLAYORDER=
